<svg width="24" height="25" viewBox="0 0 24 25" fill="none" xmlns="http://www.w3.org/2000/svg">
<g id="all_inbox">
<path id="Vector" d="M19 3.39294H5C3.9 3.39294 3 4.29294 3 5.39294V12.3929C3 13.4929 3.9 14.3929 5 14.3929H19C20.1 14.3929 21 13.4929 21 12.3929V5.39294C21 4.29294 20.1 3.39294 19 3.39294ZM19 9.39294H15C15 11.0129 13.62 12.3929 12 12.3929C10.38 12.3929 9 11.0129 9 9.39294H5V5.39294H19V9.39294ZM15 16.3929H21V19.3929C21 20.4929 20.1 21.3929 19 21.3929H5C3.9 21.3929 3 20.4929 3 19.3929V16.3929H9C9 18.0529 10.34 19.3929 12 19.3929C13.66 19.3929 15 18.0529 15 16.3929Z" fill="inherit"/>
</g>
</svg>
